<svg width="40" height="44" viewBox="0 0 40 44" fill="none" xmlns="http://www.w3.org/2000/svg">
<g id="Icons&#38;Logo/Logo Drink2Go" filter="url(#filter0_d_12949_611)">
<path id="2" fill-rule="evenodd" clip-rule="evenodd" d="M36 18C36 20.8737 35.4014 23.5901 34.3369 26H21C23.4627 22.2281 26 17.6606 26 13C26 7.00236 21.9385 1.95335 16.4158 0.453392C17.5681 0.156712 18.7678 0 20 0C28.8366 0 36 8.05888 36 18ZM22 13C22 8.02944 17.9706 4 13 4C6.34935 4 4 12.5071 4 18C4 27.9411 11.1634 36 20 36C24.7387 36 28.9962 33.6825 31.9259 30H13C13.3518 29.5514 13.7202 29.0891 14.0987 28.6142C17.6157 24.2012 22 18.6997 22 13Z" fill="#7859CF"/>
</g>
<defs>
<filter id="filter0_d_12949_611" x="0" y="0" width="40" height="44" filterUnits="userSpaceOnUse" color-interpolation-filters="sRGB">
<feFlood flood-opacity="0" result="BackgroundImageFix"/>
<feColorMatrix in="SourceAlpha" type="matrix" values="0 0 0 0 0 0 0 0 0 0 0 0 0 0 0 0 0 0 127 0" result="hardAlpha"/>
<feOffset dy="4"/>
<feGaussianBlur stdDeviation="2"/>
<feComposite in2="hardAlpha" operator="out"/>
<feColorMatrix type="matrix" values="0 0 0 0 0 0 0 0 0 0 0 0 0 0 0 0 0 0 0.25 0"/>
<feBlend mode="normal" in2="BackgroundImageFix" result="effect1_dropShadow_12949_611"/>
<feBlend mode="normal" in="SourceGraphic" in2="effect1_dropShadow_12949_611" result="shape"/>
</filter>
</defs>
</svg>
